<?xml version="1.0" encoding="UTF-8" standalone="no"?>
<svg
   id="Planritning"
   width="1595.5936"
   height="1259.0702"
   viewBox="0 0 450.31199 355.33758"
   sodipodi:docname="planrit.svg">
  <path
     id="Hallway"
     d="m 215.14743,149.66027 0,71.68811 69.36609,-31.34149 0,-52.20097 0,-34.22557 0,-7.580511 0,-38.447131 0,-25.203024 0,-26.1179102 -69.36609,0 0,5.2235822 -6.2683,0 0,38.974286 6.2683,0 0,44.145584 0,9.005124 0,30.90148 0,15.17844"
     class="Rum" />
  <path
     id="Livingroom"
     d="m 445.99082,190.00261 -161.45617,0 -69.36609,31.34149 0,35.65023 0,5.68103 0,89.29319 230.82226,0 0,-97.366 0,-37.51482 0,-27.08512"
     class="Rum" />
  <path
     id="Bedroom"
     d="m 206.69169,256.99987 8.47483,0 0,-35.65024 -8.47483,0 0,-5.22358 -6.70362,0 -196.6140581,0 0,21.38663 0,65.53221 0,48.92914 193.3073881,0 0,-92.59981 10.01029,0 0,-2.37435"
     class="Rum" />
  <path
     id="Office"
     d="m 296.3559,103.56772 -11.83688,0 0,34.22557 11.83688,0 0,37.98969 149.70644,0 0.83606,-104.506497 -97.83181,0 0,28.017395 -52.71069,0 0,4.273842"
     class="Rum" />
  <path
     id="Bathroom"
     d="m 292.99875,32.339755 -8.47802,0 0,25.203057 156.70747,0 0,-54.1701944 -141.54649,0 0,11.2671384 0,17.699999 -6.68296,0"
     class="Rum" />
  <path
     id="Kitchen"
     d="m 206.36882,134.49771 8.77396,0 0,-30.90151 -8.77396,0 0,-8.533438 -34.9205,0 -33.24098,0 -122.054547,0 0,108.766128 99.776827,0 0,-57.4594 90.4392,0 0,-11.87178"
     class="Rum" />
  <path
     id="Walls"
     d="m 444.54636,0.06697814 -148.15978,0 -8.54768,2.84922656 -75.97938,0 0,5.2235821 -6.2683,0 0,45.5876252 6.2683,0 0,40.838915 0,5.698453 -2.16066,0 0,-5.698453 0,-2.83498 -38.22713,0 -33.24097,0 -125.361226,0 0,121.077883 -12.80252441,0 0,24.6933 0,65.53221 0,52.23582 449.22806041,0 0,-100.67267 0,-37.51482 0,-30.39175 0.0798,-9.97222 0.86996,-108.745555 -5.69845,-7.123066 0,-60.78350086 m 2.36524,71.21321786 -0.83606,104.506534 -149.70639,0 0,-37.98969 -11.83692,0 0,52.20093 161.45617,0 0,27.0851 0,37.51482 0,97.36602 -230.82221,0 0,-89.29321 0,-5.68101 -8.47483,0 0,2.37436 -10.01029,0 0,92.59986 -193.3073905,0 0,-48.92917 0,-65.53221 0,-21.38665 196.6140605,0 6.70362,0 0,5.22358 8.47483,0 0,-71.68809 0,-15.17842 -8.774,0 0,11.87177 -90.4392,0 0,57.45941 -99.776786,0 0,-108.766132 122.054556,0 33.24097,0 34.92046,0 0,8.533432 8.774,0 0,-9.005103 0,-44.145565 -6.2683,0 0,-38.974324 6.2683,0 0,-5.2235823 69.36604,0 0,26.1179103 8.47801,0 6.68301,0 0,-17.699994 0,-11.2671429 141.54644,0 0,54.1701989 -156.70746,0 0,38.447112 0,7.58049 11.83692,0 0,-4.273839 52.71069,0 0,-28.017395 97.83176,0" />
</svg>
